<svg xmlns="http://www.w3.org/2000/svg" version="1.1" xmlns:xlink="http://www.w3.org/1999/xlink" xmlns:svgjs="http://svgjs.dev/svgjs" viewBox="0 0 600 600"><path d="M539.2457885742188,208.86871337890625C534.0083567301432,188.09357198079428,498.7430165608724,192.63267771402994,455.4469299316406,164.87429809570312C412.1508433024089,137.1159184773763,338.8268102010091,57.856143951416016,279.4692687988281,42.31843566894531C220.11172739664713,26.78072738647461,128.98045094807944,28.351959228515625,99.30168151855469,71.6480484008789C69.62291208902995,114.94413757324219,80.09777069091797,260.02094650268555,101.39665222167969,302.094970703125C122.6955337524414,344.16899490356445,189.90921783447266,301.7458241780599,227.094970703125,324.0921936035156C264.28072357177734,346.4385630289714,297.2765299479167,436.1731872558594,324.51116943359375,436.1731872558594C351.7458089192708,436.1731872558594,363.4427490234375,348.5335337320964,390.5028076171875,324.0921936035156C417.5628662109375,299.6508534749349,462.0810241699219,308.72905985514325,486.87152099609375,289.525146484375C511.6620178222656,270.32123311360675,544.4832204182943,229.64385477701822,539.2457885742188,208.86871337890625C534.0083567301432,188.09357198079428,498.7430165608724,192.63267771402994,455.4469299316406,164.87429809570312" fill="hsl(0, 0%, 100%)" stroke-width="0" stroke="hsl(340, 45%, 30%)"></path></svg>