<svg xmlns="http://www.w3.org/2000/svg" version="1.1" xmlns:xlink="http://www.w3.org/1999/xlink" xmlns:svgjs="http://svgjs.dev/svgjs" viewBox="0 0 2400 800" opacity="1"><defs><linearGradient x1="50%" y1="0%" x2="50%" y2="100%" id="sssurf-grad"><stop stop-color="hsl(208, 77%, 50%)" stop-opacity="1" offset="0%"></stop><stop stop-color="hsl(208, 74%, 93%)" stop-opacity="1" offset="100%"></stop></linearGradient></defs><g fill="url(#sssurf-grad)" transform="matrix(1,0,0,1,0,-177.07736206054688)"><path d="M 0 326.25549545700466 Q 300 450 300 293.00842847119634 Q 600 450 600 297.36138789620793 Q 900 450 900 358.7608799506503 Q 1200 450 1200 349.2382494725792 Q 1500 450 1500 308.5505297814604 Q 1800 450 1800 374.9453521322058 Q 2100 450 2100 277.15469511187433 Q 2400 450 2400 303.32679316073245 L 2400 800 L 0 800 L 0 363.97630244271824 Z" transform="matrix(1,0,0,1,0,53)" opacity="0.05"></path><path d="M 0 326.25549545700466 Q 300 450 300 293.00842847119634 Q 600 450 600 297.36138789620793 Q 900 450 900 358.7608799506503 Q 1200 450 1200 349.2382494725792 Q 1500 450 1500 308.5505297814604 Q 1800 450 1800 374.9453521322058 Q 2100 450 2100 277.15469511187433 Q 2400 450 2400 303.32679316073245 L 2400 800 L 0 800 L 0 363.97630244271824 Z" transform="matrix(1,0,0,1,0,106)" opacity="0.19"></path><path d="M 0 326.25549545700466 Q 300 450 300 293.00842847119634 Q 600 450 600 297.36138789620793 Q 900 450 900 358.7608799506503 Q 1200 450 1200 349.2382494725792 Q 1500 450 1500 308.5505297814604 Q 1800 450 1800 374.9453521322058 Q 2100 450 2100 277.15469511187433 Q 2400 450 2400 303.32679316073245 L 2400 800 L 0 800 L 0 363.97630244271824 Z" transform="matrix(1,0,0,1,0,159)" opacity="0.32"></path><path d="M 0 326.25549545700466 Q 300 450 300 293.00842847119634 Q 600 450 600 297.36138789620793 Q 900 450 900 358.7608799506503 Q 1200 450 1200 349.2382494725792 Q 1500 450 1500 308.5505297814604 Q 1800 450 1800 374.9453521322058 Q 2100 450 2100 277.15469511187433 Q 2400 450 2400 303.32679316073245 L 2400 800 L 0 800 L 0 363.97630244271824 Z" transform="matrix(1,0,0,1,0,212)" opacity="0.46"></path><path d="M 0 326.25549545700466 Q 300 450 300 293.00842847119634 Q 600 450 600 297.36138789620793 Q 900 450 900 358.7608799506503 Q 1200 450 1200 349.2382494725792 Q 1500 450 1500 308.5505297814604 Q 1800 450 1800 374.9453521322058 Q 2100 450 2100 277.15469511187433 Q 2400 450 2400 303.32679316073245 L 2400 800 L 0 800 L 0 363.97630244271824 Z" transform="matrix(1,0,0,1,0,265)" opacity="0.59"></path><path d="M 0 326.25549545700466 Q 300 450 300 293.00842847119634 Q 600 450 600 297.36138789620793 Q 900 450 900 358.7608799506503 Q 1200 450 1200 349.2382494725792 Q 1500 450 1500 308.5505297814604 Q 1800 450 1800 374.9453521322058 Q 2100 450 2100 277.15469511187433 Q 2400 450 2400 303.32679316073245 L 2400 800 L 0 800 L 0 363.97630244271824 Z" transform="matrix(1,0,0,1,0,318)" opacity="0.73"></path><path d="M 0 326.25549545700466 Q 300 450 300 293.00842847119634 Q 600 450 600 297.36138789620793 Q 900 450 900 358.7608799506503 Q 1200 450 1200 349.2382494725792 Q 1500 450 1500 308.5505297814604 Q 1800 450 1800 374.9453521322058 Q 2100 450 2100 277.15469511187433 Q 2400 450 2400 303.32679316073245 L 2400 800 L 0 800 L 0 363.97630244271824 Z" transform="matrix(1,0,0,1,0,371)" opacity="0.86"></path><path d="M 0 326.25549545700466 Q 300 450 300 293.00842847119634 Q 600 450 600 297.36138789620793 Q 900 450 900 358.7608799506503 Q 1200 450 1200 349.2382494725792 Q 1500 450 1500 308.5505297814604 Q 1800 450 1800 374.9453521322058 Q 2100 450 2100 277.15469511187433 Q 2400 450 2400 303.32679316073245 L 2400 800 L 0 800 L 0 363.97630244271824 Z" transform="matrix(1,0,0,1,0,424)" opacity="1.00"></path></g></svg>