<svg xmlns="http://www.w3.org/2000/svg" version="1.1" xmlns:xlink="http://www.w3.org/1999/xlink" xmlns:svgjs="http://svgjs.dev/svgjs" viewBox="0 0 800 800" opacity="1"><defs><linearGradient x1="50%" y1="0%" x2="50%" y2="100%" id="gggyrate-grad"><stop stop-color="hsl(184, 74%, 44%)" stop-opacity="1" offset="0%"></stop><stop stop-color="hsl(332, 87%, 70%)" stop-opacity="1" offset="100%"></stop></linearGradient></defs><g stroke-width="4" stroke="url(#gggyrate-grad)" fill="none"><path d="M399.9999694824219 -263.951904296875L975.0000062245508 68.02403759605886V731.9759213819264L399.9999694824219 1063.9518632748602L-175.00006725970707 731.9759213819264V68.02403759605886L399.9999694824219 -263.951904296875Z " transform="rotate(80.5, 400, 400)" opacity="0.05"></path><path d="M399.9999694824219 -235.08441162109375L950.000004627067 82.45779366779948V717.5422042455859L399.9999694824219 1035.0844095344792L-150.00006566222322 717.5422042455859V82.45779366779948L399.9999694824219 -235.08441162109375Z " transform="rotate(77, 400, 400)" opacity="0.09"></path><path d="M399.9999694824219 -206.2169189453125L925.0000030295832 96.8915497395401V703.1084871092453L399.9999694824219 1006.2169557940979L-125.00006406473938 703.1084871092453V96.8915497395401L399.9999694824219 -206.2169189453125Z " transform="rotate(73.5, 400, 400)" opacity="0.14"></path><path d="M399.9999694824219 -177.3494873046875L900.0000014320992 111.32524477612446V688.6747089377486L399.9999694824219 977.3494410185606L-100.00006246725547 688.6747089377486V111.32524477612446L399.9999694824219 -177.3494873046875Z " transform="rotate(70, 400, 400)" opacity="0.18"></path><path d="M399.9999694824219 -148.48199462890625L874.9999998346152 125.75900084786508V674.240991801408L399.9999694824219 948.4819872781793L-75.00006086977163 674.240991801408V125.75900084786508L399.9999694824219 -148.48199462890625Z " transform="rotate(66.5, 400, 400)" opacity="0.22"></path><path d="M399.9999694824219 -119.614501953125L849.9999982371314 140.1927569196058V659.8072746650673L399.9999694824219 919.6145335377983L-50.00005927228773 659.8072746650673V140.1927569196058L399.9999694824219 -119.614501953125Z " transform="rotate(63, 400, 400)" opacity="0.27"></path><path d="M399.9999694824219 -90.7470703125L824.9999966396476 154.62645195619018V645.3734964935707L399.9999694824219 890.7470187622607L-25.000057674803884 645.3734964935707V154.62645195619018L399.9999694824219 -90.7470703125Z " transform="rotate(59.5, 400, 400)" opacity="0.31"></path><path d="M399.9999694824219 -61.87957763671875L799.9999950421638 169.0602080279308V630.9397793572301L399.9999694824219 861.8795650218794L-0.00005607732003909405 630.9397793572301V169.0602080279308L399.9999694824219 -61.87957763671875Z " transform="rotate(56, 400, 400)" opacity="0.35"></path><path d="M400.0000305175781 -33.0120849609375L775.0000544798362 183.49396409967153V616.5060622208895L400.0000305175781 833.0121112814986L25.000006555320113 616.5060622208895V183.49396409967153L400.0000305175781 -33.0120849609375Z " transform="rotate(52.5, 400, 400)" opacity="0.40"></path><path d="M400.0000305175781 -4.1446533203125L750.0000528823523 197.9276591362559V602.0722840493927L400.0000305175781 804.1445965059611L50.00000815280396 602.0722840493927V197.9276591362559L400.0000305175781 -4.1446533203125Z " transform="rotate(49, 400, 400)" opacity="0.44"></path><path d="M400.0000305175781 24.72283935546875L725.0000512848684 212.36141520799657V587.6385669130523L400.0000305175781 775.27714276558L75.00000975028786 587.6385669130523V212.36141520799657L400.0000305175781 24.72283935546875Z " transform="rotate(45.5, 400, 400)" opacity="0.48"></path><path d="M400.0000305175781 53.59033203125L700.0000496873845 226.79517127973725V573.2048497767117L400.0000305175781 746.4096890251989L100.0000113477717 573.2048497767117V226.79517127973725L400.0000305175781 53.59033203125Z " transform="rotate(42, 400, 400)" opacity="0.53"></path><path d="M400.0000305175781 82.45779418945312L675.0000480899007 241.22889683389974V558.771102122793L400.0000305175781 717.5422047672396L125.00001294525555 558.771102122793V241.22889683389974L400.0000305175781 82.45779418945312Z " transform="rotate(38.5, 400, 400)" opacity="0.57"></path><path d="M400.00001525878906 111.32525634765625L650.0000312336277 255.66262238806223V544.3373544688743L400.00001525878906 688.6747205092803L149.9999992839504 544.3373544688743V255.66262238806223L400.00001525878906 111.32525634765625Z " transform="rotate(35, 400, 400)" opacity="0.61"></path><path d="M400 140.1927490234375L625.0000143773548 270.0963784598029V529.9036373325337L400 659.8072667688991L174.99998562264517 529.9036373325337V270.0963784598029L400 140.1927490234375Z " transform="rotate(31.5, 400, 400)" opacity="0.65"></path><path d="M400 169.06021118164062L600.000012779871 284.5301040139654V515.4698896786151L400 630.9397825109397L199.99998722012907 515.4698896786151V284.5301040139654L400 169.06021118164062Z " transform="rotate(28, 400, 400)" opacity="0.70"></path><path d="M400 197.92767333984375L575.0000111823871 298.96382956812795V501.03614202469635L400 602.0722982529805L224.99998881761292 501.03614202469635V298.96382956812795L400 197.92767333984375Z " transform="rotate(24.5, 400, 400)" opacity="0.74"></path><path d="M400 226.795166015625L550.0000095849032 313.3975856398686V486.60242488835587L400 573.2048445125995L249.99999041509682 486.60242488835587V313.3975856398686L400 226.795166015625Z " transform="rotate(21, 400, 400)" opacity="0.78"></path><path d="M400 255.66262817382812L525.0000079874194 327.8313111940311V472.16867723443715L400 544.3373602546401L274.99999201258066 472.16867723443715V327.8313111940311L400 255.66262817382812Z " transform="rotate(17.5, 400, 400)" opacity="0.83"></path><path d="M400 284.5301055908203L500.0000063899355 342.2650520069827V457.73494483930756L400 515.4698912554699L299.9999936100645 457.73494483930756V342.2650520069827L400 284.5301055908203Z " transform="rotate(14, 400, 400)" opacity="0.87"></path><path d="M400 313.3975830078125L475.0000047924516 356.6987928199343V443.30121244417796L400 486.60242225629975L324.9999952075484 443.30121244417796V356.6987928199343L400 313.3975830078125Z " transform="rotate(10.5, 400, 400)" opacity="0.91"></path><path d="M400 342.2650604248047L450.00000319496775 371.1325336328859V428.8674800490483L400 457.73495325712946L349.99999680503225 428.8674800490483V371.1325336328859L400 342.2650604248047Z " transform="rotate(7, 400, 400)" opacity="0.96"></path><path d="M400 371.1325225830078L425.0000015974839 385.5662591870484V414.4337323951296L400 428.8674689991702L374.99999840251616 414.4337323951296V385.5662591870484L400 371.1325225830078Z " transform="rotate(3.5, 400, 400)" opacity="1.00"></path></g></svg>